<svg height="1534" width="720" xmlns="http://www.w3.org/2000/svg">
<rect height="1534" fill="#555" width="720"></rect>
<text fill="#7f7" font-family="Courier New" font-size="12" xml:space="preserve">
<tspan x="10" y="26">15 megabytes installed</tspan>
<tspan x="10" y="42"></tspan>
<tspan x="10" y="58">node_modules</tspan>
<tspan x="10" y="74">├─┬ cmdutil@1.1.0 </tspan>
<tspan x="10" y="90">│ ├── assert-plus@0.1.5 </tspan>
<tspan x="10" y="106">│ └── extsprintf@1.3.0 </tspan>
<tspan x="10" y="122">├── crc@0.3.0 </tspan>
<tspan x="10" y="138">├─┬ kang@1.1.0 </tspan>
<tspan x="10" y="154">│ ├─┬ jsprim@1.4.0 </tspan>
<tspan x="10" y="170">│ │ ├── assert-plus@1.0.0 </tspan>
<tspan x="10" y="186">│ │ ├── extsprintf@1.0.2 </tspan>
<tspan x="10" y="202">│ │ ├── json-schema@0.2.3 </tspan>
<tspan x="10" y="218">│ │ └── verror@1.3.6 </tspan>
<tspan x="10" y="234">│ ├── posix-getopt@1.2.0 </tspan>
<tspan x="10" y="250">│ ├─┬ restify@4.1.1 </tspan>
<tspan x="10" y="266">│ │ ├── assert-plus@0.1.5 </tspan>
<tspan x="10" y="282">│ │ ├─┬ backoff@2.5.0 </tspan>
<tspan x="10" y="298">│ │ │ └── precond@0.2.3 </tspan>
<tspan x="10" y="314">│ │ ├─┬ bunyan@1.8.10 </tspan>
<tspan x="10" y="330">│ │ │ ├── dtrace-provider@0.8.1 </tspan>
<tspan x="10" y="346">│ │ │ ├── moment@2.18.1 </tspan>
<tspan x="10" y="362">│ │ │ ├─┬ mv@2.1.1 </tspan>
<tspan x="10" y="378">│ │ │ │ ├─┬ mkdirp@0.5.1 </tspan>
<tspan x="10" y="394">│ │ │ │ │ └── minimist@0.0.8 </tspan>
<tspan x="10" y="410">│ │ │ │ ├── ncp@2.0.0 </tspan>
<tspan x="10" y="426">│ │ │ │ └─┬ rimraf@2.4.5 </tspan>
<tspan x="10" y="442">│ │ │ │   └─┬ glob@6.0.4 </tspan>
<tspan x="10" y="458">│ │ │ │     ├── inflight@1.0.6 </tspan>
<tspan x="10" y="474">│ │ │ │     ├─┬ minimatch@3.0.3 </tspan>
<tspan x="10" y="490">│ │ │ │     │ └─┬ brace-expansion@1.1.7 </tspan>
<tspan x="10" y="506">│ │ │ │     │   ├── balanced-match@0.4.2 </tspan>
<tspan x="10" y="522">│ │ │ │     │   └── concat-map@0.0.1 </tspan>
<tspan x="10" y="538">│ │ │ │     └── path-is-absolute@1.0.1 </tspan>
<tspan x="10" y="554">│ │ │ └── safe-json-stringify@1.0.4 </tspan>
<tspan x="10" y="570">│ │ ├─┬ csv@0.4.6 </tspan>
<tspan x="10" y="586">│ │ │ ├── csv-generate@0.0.6 </tspan>
<tspan x="10" y="602">│ │ │ ├── csv-parse@1.2.0 </tspan>
<tspan x="10" y="618">│ │ │ ├── csv-stringify@0.0.8 </tspan>
<tspan x="10" y="634">│ │ │ └── stream-transform@0.1.2 </tspan>
<tspan x="10" y="650">│ │ ├─┬ dtrace-provider@0.6.0 </tspan>
<tspan x="10" y="666">│ │ │ └── nan@2.6.2 </tspan>
<tspan x="10" y="682">│ │ ├── escape-regexp-component@1.0.2 </tspan>
<tspan x="10" y="698">│ │ ├── formidable@1.1.1 </tspan>
<tspan x="10" y="714">│ │ ├─┬ http-signature@0.11.0 </tspan>
<tspan x="10" y="730">│ │ │ ├── asn1@0.1.11 </tspan>
<tspan x="10" y="746">│ │ │ ├── assert-plus@0.1.5 </tspan>
<tspan x="10" y="762">│ │ │ └── ctype@0.5.3 </tspan>
<tspan x="10" y="778">│ │ ├── keep-alive-agent@0.0.1 </tspan>
<tspan x="10" y="794">│ │ ├─┬ lru-cache@4.0.2 </tspan>
<tspan x="10" y="810">│ │ │ ├── pseudomap@1.0.2 </tspan>
<tspan x="10" y="826">│ │ │ └── yallist@2.1.2 </tspan>
<tspan x="10" y="842">│ │ ├── mime@1.3.4 </tspan>
<tspan x="10" y="858">│ │ ├── negotiator@0.6.1 </tspan>
<tspan x="10" y="874">│ │ ├── node-uuid@1.4.8 </tspan>
<tspan x="10" y="890">│ │ ├─┬ once@1.4.0 </tspan>
<tspan x="10" y="906">│ │ │ └── wrappy@1.0.2 </tspan>
<tspan x="10" y="922">│ │ ├── qs@3.1.0 </tspan>
<tspan x="10" y="938">│ │ ├── semver@4.3.6 </tspan>
<tspan x="10" y="954">│ │ ├─┬ spdy@3.4.4 </tspan>
<tspan x="10" y="970">│ │ │ ├─┬ debug@2.6.3 </tspan>
<tspan x="10" y="986">│ │ │ │ └── ms@0.7.2 </tspan>
<tspan x="10" y="1002">│ │ │ ├── handle-thing@1.2.5 </tspan>
<tspan x="10" y="1018">│ │ │ ├── http-deceiver@1.2.7 </tspan>
<tspan x="10" y="1034">│ │ │ ├── select-hose@2.0.0 </tspan>
<tspan x="10" y="1050">│ │ │ └─┬ spdy-transport@2.0.18 </tspan>
<tspan x="10" y="1066">│ │ │   ├── hpack.js@2.1.6 </tspan>
<tspan x="10" y="1082">│ │ │   ├── obuf@1.1.1 </tspan>
<tspan x="10" y="1098">│ │ │   └─┬ wbuf@1.7.2 </tspan>
<tspan x="10" y="1114">│ │ │     └── minimalistic-assert@1.0.0 </tspan>
<tspan x="10" y="1130">│ │ ├── tunnel-agent@0.4.3 </tspan>
<tspan x="10" y="1146">│ │ ├─┬ vasync@1.6.3 </tspan>
<tspan x="10" y="1162">│ │ │ └─┬ verror@1.6.0 </tspan>
<tspan x="10" y="1178">│ │ │   └── extsprintf@1.2.0 </tspan>
<tspan x="10" y="1194">│ │ └── verror@1.9.0 </tspan>
<tspan x="10" y="1210">│ ├─┬ restify-clients@1.1.1 </tspan>
<tspan x="10" y="1226">│ │ ├── assert-plus@0.1.5 </tspan>
<tspan x="10" y="1242">│ │ ├── lodash@3.10.1 </tspan>
<tspan x="10" y="1258">│ │ ├── lru-cache@2.7.3 </tspan>
<tspan x="10" y="1274">│ │ ├─┬ restify-errors@3.1.0 </tspan>
<tspan x="10" y="1290">│ │ │ └── assert-plus@0.2.0 </tspan>
<tspan x="10" y="1306">│ │ └── semver@5.3.0 </tspan>
<tspan x="10" y="1322">│ ├── strsplit@1.0.0 </tspan>
<tspan x="10" y="1338">│ └─┬ vasync@1.6.4 </tspan>
<tspan x="10" y="1354">│   └─┬ verror@1.6.0 </tspan>
<tspan x="10" y="1370">│     └── extsprintf@1.2.0 </tspan>
<tspan x="10" y="1386">└─┬ lstream@0.0.4 </tspan>
<tspan x="10" y="1402">  └─┬ readable-stream@2.2.9 </tspan>
<tspan x="10" y="1418">    ├── buffer-shims@1.0.0 </tspan>
<tspan x="10" y="1434">    ├── core-util-is@1.0.2 </tspan>
<tspan x="10" y="1450">    ├── inherits@2.0.3 </tspan>
<tspan x="10" y="1466">    ├── isarray@1.0.0 </tspan>
<tspan x="10" y="1482">    ├── process-nextick-args@1.0.7 </tspan>
<tspan x="10" y="1498">    ├── string_decoder@1.0.0 </tspan>
<tspan x="10" y="1514">    └── util-deprecate@1.0.2</tspan>
</text>
</svg>
